<?xml version="1.0" encoding="UTF-8"?>
<svg xmlns="http://www.w3.org/2000/svg" xmlns:xlink="http://www.w3.org/1999/xlink" width="55.35" height="53.01" viewBox="0 0 55.35 53.01">
<defs>
<g>
<g id="glyph-0-0">
<path d="M 1.40625 -0.828125 C 1.171875 -0.453125 0.953125 -0.28125 0.546875 -0.25 C 0.484375 -0.234375 0.390625 -0.234375 0.390625 -0.109375 C 0.390625 -0.03125 0.453125 0 0.484375 0 C 0.65625 0 0.890625 -0.03125 1.078125 -0.03125 C 1.296875 -0.03125 1.578125 0 1.78125 0 C 1.8125 0 1.921875 0 1.921875 -0.15625 C 1.921875 -0.234375 1.828125 -0.25 1.796875 -0.25 C 1.75 -0.25 1.5 -0.265625 1.5 -0.453125 C 1.5 -0.53125 1.5625 -0.65625 1.59375 -0.71875 L 2.15625 -1.5625 L 4.109375 -1.5625 L 4.265625 -0.421875 C 4.25 -0.359375 4.203125 -0.25 3.796875 -0.25 C 3.71875 -0.25 3.625 -0.25 3.625 -0.09375 C 3.625 -0.0625 3.640625 0 3.734375 0 C 3.921875 0 4.421875 -0.03125 4.609375 -0.03125 C 4.734375 -0.03125 4.890625 -0.015625 5.015625 -0.015625 C 5.140625 -0.015625 5.28125 0 5.40625 0 C 5.5 0 5.546875 -0.0625 5.546875 -0.140625 C 5.546875 -0.25 5.46875 -0.25 5.359375 -0.25 C 4.953125 -0.25 4.9375 -0.296875 4.921875 -0.46875 L 4.3125 -4.6875 C 4.296875 -4.828125 4.28125 -4.875 4.15625 -4.875 C 4.03125 -4.875 3.984375 -4.8125 3.921875 -4.71875 Z M 2.3125 -1.8125 L 3.75 -4.046875 L 4.078125 -1.8125 Z M 2.3125 -1.8125 "/>
</g>
<g id="glyph-1-0">
<path d="M 3.140625 -1.75 C 3.140625 -2.0625 2.953125 -2.171875 2.84375 -2.171875 C 2.71875 -2.171875 2.5625 -2.015625 2.5625 -1.890625 C 2.5625 -1.796875 2.625 -1.734375 2.65625 -1.71875 C 2.71875 -1.671875 2.84375 -1.5625 2.84375 -1.34375 C 2.84375 -1.078125 2.484375 -0.109375 1.890625 -0.109375 C 1.640625 -0.109375 1.421875 -0.203125 1.421875 -0.5625 C 1.421875 -0.8125 1.5625 -1.125 1.703125 -1.484375 C 1.734375 -1.5625 1.765625 -1.640625 1.765625 -1.734375 C 1.765625 -1.96875 1.53125 -2.15625 1.234375 -2.15625 C 0.71875 -2.15625 0.4375 -1.53125 0.4375 -1.40625 C 0.4375 -1.328125 0.515625 -1.328125 0.546875 -1.328125 C 0.625 -1.328125 0.640625 -1.359375 0.65625 -1.4375 C 0.765625 -1.765625 0.984375 -2 1.21875 -2 C 1.3125 -2 1.359375 -1.9375 1.359375 -1.8125 C 1.359375 -1.71875 1.34375 -1.65625 1.28125 -1.515625 C 1.078125 -1.046875 1.015625 -0.8125 1.015625 -0.625 C 1.015625 -0.140625 1.40625 0.046875 1.875 0.046875 C 2.265625 0.046875 2.546875 -0.234375 2.734375 -0.5 C 3.078125 -1.015625 3.140625 -1.65625 3.140625 -1.75 Z M 3.140625 -1.75 "/>
</g>
<g id="glyph-2-0">
<path d="M 0.859375 -0.578125 C 0.828125 -0.4375 0.765625 -0.203125 0.765625 -0.15625 C 0.765625 0.015625 0.90625 0.109375 1.0625 0.109375 C 1.171875 0.109375 1.34375 0.03125 1.421875 -0.171875 C 1.4375 -0.203125 1.765625 -1.53125 1.8125 -1.71875 C 1.890625 -2.03125 2.0625 -2.71875 2.125 -2.984375 C 2.15625 -3.109375 2.4375 -3.5625 2.671875 -3.78125 C 2.75 -3.859375 3.03125 -4.109375 3.453125 -4.109375 C 3.703125 -4.109375 3.859375 -3.984375 3.859375 -3.984375 C 3.5625 -3.9375 3.359375 -3.703125 3.359375 -3.453125 C 3.359375 -3.296875 3.46875 -3.109375 3.734375 -3.109375 C 3.984375 -3.109375 4.265625 -3.328125 4.265625 -3.6875 C 4.265625 -4.03125 3.953125 -4.328125 3.453125 -4.328125 C 2.8125 -4.328125 2.390625 -3.84375 2.203125 -3.5625 C 2.125 -4.015625 1.765625 -4.328125 1.3125 -4.328125 C 0.859375 -4.328125 0.671875 -3.9375 0.59375 -3.765625 C 0.40625 -3.4375 0.28125 -2.84375 0.28125 -2.8125 C 0.28125 -2.71875 0.375 -2.71875 0.40625 -2.71875 C 0.5 -2.71875 0.515625 -2.734375 0.5625 -2.9375 C 0.734375 -3.640625 0.921875 -4.109375 1.28125 -4.109375 C 1.453125 -4.109375 1.578125 -4.03125 1.578125 -3.65625 C 1.578125 -3.453125 1.5625 -3.34375 1.421875 -2.84375 Z M 0.859375 -0.578125 "/>
</g>
<g id="glyph-2-1">
<path d="M 3.421875 -0.546875 C 3.53125 -0.140625 3.875 0.109375 4.296875 0.109375 C 4.640625 0.109375 4.859375 -0.125 5.015625 -0.4375 C 5.1875 -0.78125 5.3125 -1.375 5.3125 -1.40625 C 5.3125 -1.5 5.21875 -1.5 5.1875 -1.5 C 5.09375 -1.5 5.09375 -1.453125 5.0625 -1.328125 C 4.921875 -0.765625 4.734375 -0.109375 4.328125 -0.109375 C 4.125 -0.109375 4.015625 -0.234375 4.015625 -0.5625 C 4.015625 -0.765625 4.140625 -1.234375 4.21875 -1.578125 L 4.484375 -2.625 C 4.515625 -2.78125 4.609375 -3.15625 4.65625 -3.296875 C 4.703125 -3.515625 4.796875 -3.890625 4.796875 -3.953125 C 4.796875 -4.125 4.671875 -4.21875 4.515625 -4.21875 C 4.46875 -4.21875 4.21875 -4.203125 4.140625 -3.875 C 3.953125 -3.15625 3.515625 -1.453125 3.40625 -0.921875 C 3.390625 -0.890625 3 -0.109375 2.28125 -0.109375 C 1.78125 -0.109375 1.6875 -0.546875 1.6875 -0.90625 C 1.6875 -1.453125 1.953125 -2.234375 2.203125 -2.90625 C 2.328125 -3.203125 2.375 -3.328125 2.375 -3.515625 C 2.375 -3.96875 2.0625 -4.328125 1.578125 -4.328125 C 0.640625 -4.328125 0.28125 -2.90625 0.28125 -2.8125 C 0.28125 -2.71875 0.375 -2.71875 0.40625 -2.71875 C 0.5 -2.71875 0.515625 -2.734375 0.5625 -2.890625 C 0.796875 -3.75 1.171875 -4.109375 1.546875 -4.109375 C 1.640625 -4.109375 1.796875 -4.09375 1.796875 -3.78125 C 1.796875 -3.546875 1.6875 -3.265625 1.625 -3.125 C 1.265625 -2.15625 1.0625 -1.546875 1.0625 -1.0625 C 1.0625 -0.140625 1.734375 0.109375 2.265625 0.109375 C 2.90625 0.109375 3.25 -0.328125 3.421875 -0.546875 Z M 3.421875 -0.546875 "/>
</g>
<g id="glyph-2-2">
<path d="M 2.53125 -6.6875 C 2.53125 -6.6875 2.53125 -6.78125 2.390625 -6.78125 C 2.171875 -6.78125 1.453125 -6.703125 1.203125 -6.6875 C 1.125 -6.6875 1.015625 -6.671875 1.015625 -6.484375 C 1.015625 -6.375 1.109375 -6.375 1.265625 -6.375 C 1.734375 -6.375 1.734375 -6.296875 1.734375 -6.21875 L 1.71875 -6.015625 L 0.484375 -1.125 C 0.453125 -1.015625 0.4375 -0.953125 0.4375 -0.796875 C 0.4375 -0.234375 0.859375 0.109375 1.328125 0.109375 C 1.640625 0.109375 1.890625 -0.09375 2.046875 -0.4375 C 2.234375 -0.8125 2.34375 -1.375 2.34375 -1.40625 C 2.34375 -1.5 2.265625 -1.5 2.234375 -1.5 C 2.125 -1.5 2.125 -1.453125 2.09375 -1.328125 C 1.921875 -0.6875 1.734375 -0.109375 1.34375 -0.109375 C 1.0625 -0.109375 1.0625 -0.421875 1.0625 -0.5625 C 1.0625 -0.796875 1.0625 -0.84375 1.109375 -1.03125 Z M 2.53125 -6.6875 "/>
</g>
<g id="glyph-2-3">
<path d="M 5.046875 -6.6875 C 5.046875 -6.6875 5.046875 -6.78125 4.921875 -6.78125 C 4.765625 -6.78125 3.84375 -6.703125 3.671875 -6.6875 C 3.59375 -6.671875 3.546875 -6.625 3.546875 -6.5 C 3.546875 -6.375 3.625 -6.375 3.78125 -6.375 C 4.25 -6.375 4.265625 -6.3125 4.265625 -6.21875 L 4.234375 -6.015625 L 3.65625 -3.703125 C 3.46875 -4.0625 3.1875 -4.328125 2.75 -4.328125 C 1.609375 -4.328125 0.390625 -2.890625 0.390625 -1.453125 C 0.390625 -0.53125 0.921875 0.109375 1.6875 0.109375 C 1.890625 0.109375 2.375 0.0625 2.96875 -0.625 C 3.046875 -0.21875 3.390625 0.109375 3.859375 0.109375 C 4.203125 0.109375 4.421875 -0.125 4.578125 -0.4375 C 4.75 -0.78125 4.875 -1.375 4.875 -1.40625 C 4.875 -1.5 4.78125 -1.5 4.75 -1.5 C 4.65625 -1.5 4.640625 -1.453125 4.609375 -1.328125 C 4.453125 -0.6875 4.28125 -0.109375 3.875 -0.109375 C 3.609375 -0.109375 3.578125 -0.359375 3.578125 -0.5625 C 3.578125 -0.796875 3.59375 -0.859375 3.640625 -1.03125 Z M 3.015625 -1.15625 C 2.96875 -0.984375 2.96875 -0.96875 2.8125 -0.796875 C 2.390625 -0.265625 1.984375 -0.109375 1.71875 -0.109375 C 1.21875 -0.109375 1.078125 -0.640625 1.078125 -1.03125 C 1.078125 -1.515625 1.40625 -2.71875 1.625 -3.171875 C 1.921875 -3.75 2.359375 -4.109375 2.765625 -4.109375 C 3.390625 -4.109375 3.53125 -3.3125 3.53125 -3.25 C 3.53125 -3.1875 3.515625 -3.125 3.5 -3.078125 Z M 3.015625 -1.15625 "/>
</g>
</g>
</defs>
<path fill="none" stroke-width="0.54794" stroke-linecap="round" stroke-linejoin="round" stroke="rgb(7.998657%, 7.998657%, 7.998657%)" stroke-opacity="1" stroke-miterlimit="10" d="M 0.0116193 1.515748 L 0.0116193 13.365812 " transform="matrix(0.981667, 0, 0, -0.981667, 26.570625, 24.730147)"/>
<path fill="none" stroke-width="0.54794" stroke-linecap="round" stroke-linejoin="round" stroke="rgb(7.998657%, 7.998657%, 7.998657%)" stroke-opacity="1" stroke-miterlimit="10" d="M -0.000318336 -0.000328098 L 14.030348 -0.000328098 " transform="matrix(0.981667, 0, 0, -0.981667, 26.570625, 24.730147)"/>
<path fill="none" stroke-width="0.54794" stroke-linecap="round" stroke-linejoin="round" stroke="rgb(7.998657%, 7.998657%, 7.998657%)" stroke-opacity="1" stroke-miterlimit="10" d="M -0.000318336 -0.000328098 L 8.419673 11.225001 " transform="matrix(0.981667, 0, 0, -0.981667, 26.570625, 24.730147)"/>
<path fill="none" stroke-width="0.54794" stroke-linecap="round" stroke-linejoin="round" stroke="rgb(7.998657%, 7.998657%, 7.998657%)" stroke-opacity="1" stroke-miterlimit="10" d="M -0.000318336 -0.000328098 L -14.030985 -0.000328098 " transform="matrix(0.981667, 0, 0, -0.981667, 26.570625, 24.730147)"/>
<path fill="none" stroke-width="0.54794" stroke-linecap="round" stroke-linejoin="round" stroke="rgb(7.998657%, 7.998657%, 7.998657%)" stroke-opacity="1" stroke-miterlimit="10" d="M -0.000318336 -0.000328098 L -8.42031 -11.225657 " transform="matrix(0.981667, 0, 0, -0.981667, 26.570625, 24.730147)"/>
<path fill-rule="nonzero" fill="rgb(7.998657%, 7.998657%, 7.998657%)" fill-opacity="1" stroke-width="0.54794" stroke-linecap="round" stroke-linejoin="round" stroke="rgb(7.998657%, 7.998657%, 7.998657%)" stroke-opacity="1" stroke-miterlimit="10" d="M 2.494641 -0.000328098 C 3.115397 0.827346 2.498621 1.495852 1.121817 1.495852 C -0.254987 1.495852 -1.874522 0.827346 -2.495278 -0.000328098 C -3.116034 -0.828002 -2.499257 -1.496508 -1.122453 -1.496508 C 0.254351 -1.496508 1.873886 -0.828002 2.494641 -0.000328098 Z M 2.494641 -0.000328098 " transform="matrix(0.981667, 0, 0, -0.981667, 26.570625, 24.730147)"/>
<g fill="rgb(0%, 0%, 0%)" fill-opacity="1">
<use xlink:href="#glyph-0-0" x="36.644488" y="40.04611"/>
</g>
<g fill="rgb(0%, 0%, 0%)" fill-opacity="1">
<use xlink:href="#glyph-1-0" x="42.526635" y="41.02385"/>
</g>
<g fill="rgb(0%, 0%, 0%)" fill-opacity="1">
<use xlink:href="#glyph-2-0" x="44.21412" y="26.835822"/>
</g>
<g fill="rgb(0%, 0%, 0%)" fill-opacity="1">
<use xlink:href="#glyph-2-1" x="38.704025" y="9.84219"/>
</g>
<g fill="rgb(0%, 0%, 0%)" fill-opacity="1">
<use xlink:href="#glyph-2-2" x="5.81721" y="28.125732"/>
</g>
<g fill="rgb(0%, 0%, 0%)" fill-opacity="1">
<use xlink:href="#glyph-2-3" x="9.347283" y="46.410255"/>
</g>
</svg>
