<svg xmlns="http://www.w3.org/2000/svg" width="264" height="264" viewBox="0 0 264 264" role="img" aria-label="TNLean">
<defs><linearGradient id="gf" gradientUnits="userSpaceOnUse" x1="40" y1="40" x2="224" y2="224"><stop offset="0" stop-color="#2f5fd0"/><stop offset="1" stop-color="#6b3df0"/></linearGradient></defs>
<g>
<line stroke="#9aa6c2" stroke-width="4.68" stroke-linecap="round" x1="72.6" y1="61.68" x2="72.6" y2="41.4"/>
<line stroke="#9aa6c2" stroke-width="4.68" stroke-linecap="round" x1="153.72" y1="61.68" x2="153.72" y2="41.4"/>
<line stroke="#9aa6c2" stroke-width="4.68" stroke-linecap="round" x1="208.32" y1="61.68" x2="208.32" y2="41.4"/>
<line stroke="#9aa6c2" stroke-width="4.68" stroke-linecap="round" x1="116.28" y1="124.08" x2="136.56" y2="124.08"/>
<line stroke="#9aa6c2" stroke-width="4.68" stroke-linecap="round" x1="92.1" y1="209.88" x2="92.1" y2="230.16"/>
<line stroke="#9aa6c2" stroke-width="4.68" stroke-linecap="round" x1="208.32" y1="209.88" x2="208.32" y2="230.16"/>
<line stroke="#9aa6c2" stroke-width="4.68" stroke-linecap="round" x1="153.72" y1="209.88" x2="153.72" y2="230.16"/>
<line stroke="#9aa6c2" stroke-width="4.68" stroke-linecap="round" x1="66.36" y1="145.92" x2="46.08" y2="145.92"/>
<line stroke="url(#gf)" stroke-width="7.02" stroke-linecap="round" stroke-linejoin="round" x1="72.6" y1="61.68" x2="72.6" y2="124.08"/>
<line stroke="url(#gf)" stroke-width="7.02" stroke-linecap="round" stroke-linejoin="round" x1="72.6" y1="124.08" x2="116.28" y2="124.08"/>
<line stroke="url(#gf)" stroke-width="7.02" stroke-linecap="round" stroke-linejoin="round" x1="153.72" y1="61.68" x2="208.32" y2="61.68"/>
<line stroke="url(#gf)" stroke-width="7.02" stroke-linecap="round" stroke-linejoin="round" x1="208.32" y1="61.68" x2="208.32" y2="124.08"/>
<line stroke="url(#gf)" stroke-width="7.02" stroke-linecap="round" stroke-linejoin="round" x1="208.32" y1="124.08" x2="153.72" y2="124.08"/>
<line stroke="url(#gf)" stroke-width="7.02" stroke-linecap="round" stroke-linejoin="round" x1="208.32" y1="89.76" x2="178.68" y2="89.76"/>
<line stroke="url(#gf)" stroke-width="7.02" stroke-linecap="round" stroke-linejoin="round" x1="66.36" y1="145.92" x2="92.1" y2="209.88"/>
<line stroke="url(#gf)" stroke-width="7.02" stroke-linecap="round" stroke-linejoin="round" x1="92.1" y1="209.88" x2="117.84" y2="145.92"/>
<line stroke="url(#gf)" stroke-width="7.02" stroke-linecap="round" stroke-linejoin="round" x1="77.28" y1="181.8" x2="106.92" y2="181.8"/>
<line stroke="url(#gf)" stroke-width="7.02" stroke-linecap="round" stroke-linejoin="round" x1="153.72" y1="209.88" x2="153.72" y2="145.92"/>
<line stroke="url(#gf)" stroke-width="7.02" stroke-linecap="round" stroke-linejoin="round" x1="153.72" y1="145.92" x2="208.32" y2="209.88"/>
<line stroke="url(#gf)" stroke-width="7.02" stroke-linecap="round" stroke-linejoin="round" x1="208.32" y1="209.88" x2="208.32" y2="145.92"/>
<circle fill="#fff" stroke="url(#gf)" stroke-width="5.46" cx="66.36" cy="145.92" r="7.41"/>
<circle fill="#fff" stroke="url(#gf)" stroke-width="5.46" cx="72.6" cy="61.68" r="7.41"/>
<circle fill="#fff" stroke="url(#gf)" stroke-width="5.46" cx="72.6" cy="124.08" r="7.41"/>
<circle fill="#fff" stroke="url(#gf)" stroke-width="5.46" cx="77.28" cy="181.8" r="7.41"/>
<circle fill="#fff" stroke="url(#gf)" stroke-width="5.46" cx="92.1" cy="209.88" r="7.41"/>
<circle fill="#fff" stroke="url(#gf)" stroke-width="5.46" cx="106.92" cy="181.8" r="7.41"/>
<circle fill="#fff" stroke="url(#gf)" stroke-width="5.46" cx="116.28" cy="124.08" r="7.41"/>
<circle fill="#fff" stroke="url(#gf)" stroke-width="5.46" cx="117.84" cy="145.92" r="7.41"/>
<circle fill="#fff" stroke="url(#gf)" stroke-width="5.46" cx="153.72" cy="61.68" r="7.41"/>
<circle fill="#fff" stroke="url(#gf)" stroke-width="5.46" cx="153.72" cy="124.08" r="7.41"/>
<circle fill="#fff" stroke="url(#gf)" stroke-width="5.46" cx="153.72" cy="145.92" r="7.41"/>
<circle fill="#fff" stroke="url(#gf)" stroke-width="5.46" cx="153.72" cy="209.88" r="7.41"/>
<circle fill="#fff" stroke="url(#gf)" stroke-width="5.46" cx="178.68" cy="89.76" r="7.41"/>
<circle fill="#fff" stroke="url(#gf)" stroke-width="5.46" cx="208.32" cy="61.68" r="7.41"/>
<circle fill="#fff" stroke="url(#gf)" stroke-width="5.46" cx="208.32" cy="89.76" r="7.41"/>
<circle fill="#fff" stroke="url(#gf)" stroke-width="5.46" cx="208.32" cy="124.08" r="7.41"/>
<circle fill="#fff" stroke="url(#gf)" stroke-width="5.46" cx="208.32" cy="145.92" r="7.41"/>
<circle fill="#fff" stroke="url(#gf)" stroke-width="5.46" cx="208.32" cy="209.88" r="7.41"/>
</g>
</svg>