<svg xmlns="http://www.w3.org/2000/svg" width="600" height="180" viewBox="0 0 600 180" role="img" aria-label="TNLean">
<defs><linearGradient id="g" gradientUnits="userSpaceOnUse" x1="30" y1="30" x2="150" y2="150"><stop offset="0" stop-color="#2f5fd0"/><stop offset="1" stop-color="#6b3df0"/></linearGradient><linearGradient id="gw" x1="0" y1="0" x2="1" y2="1"><stop offset="0" stop-color="#2f5fd0"/><stop offset="1" stop-color="#6b3df0"/></linearGradient></defs>
<g>
<line stroke="#9aa6c2" stroke-width="2.76" stroke-linecap="round" x1="50.2" y1="43.76" x2="50.2" y2="31.8"/>
<line stroke="#9aa6c2" stroke-width="2.76" stroke-linecap="round" x1="98.04" y1="43.76" x2="98.04" y2="31.8"/>
<line stroke="#9aa6c2" stroke-width="2.76" stroke-linecap="round" x1="130.24" y1="43.76" x2="130.24" y2="31.8"/>
<line stroke="#9aa6c2" stroke-width="2.76" stroke-linecap="round" x1="75.96" y1="80.56" x2="87.92" y2="80.56"/>
<line stroke="#9aa6c2" stroke-width="2.76" stroke-linecap="round" x1="61.7" y1="131.16" x2="61.7" y2="143.12"/>
<line stroke="#9aa6c2" stroke-width="2.76" stroke-linecap="round" x1="130.24" y1="131.16" x2="130.24" y2="143.12"/>
<line stroke="#9aa6c2" stroke-width="2.76" stroke-linecap="round" x1="98.04" y1="131.16" x2="98.04" y2="143.12"/>
<line stroke="#9aa6c2" stroke-width="2.76" stroke-linecap="round" x1="46.52" y1="93.44" x2="34.56" y2="93.44"/>
<line stroke="url(#g)" stroke-width="4.14" stroke-linecap="round" stroke-linejoin="round" x1="50.2" y1="43.76" x2="50.2" y2="80.56"/>
<line stroke="url(#g)" stroke-width="4.14" stroke-linecap="round" stroke-linejoin="round" x1="50.2" y1="80.56" x2="75.96" y2="80.56"/>
<line stroke="url(#g)" stroke-width="4.14" stroke-linecap="round" stroke-linejoin="round" x1="98.04" y1="43.76" x2="130.24" y2="43.76"/>
<line stroke="url(#g)" stroke-width="4.14" stroke-linecap="round" stroke-linejoin="round" x1="130.24" y1="43.76" x2="130.24" y2="80.56"/>
<line stroke="url(#g)" stroke-width="4.14" stroke-linecap="round" stroke-linejoin="round" x1="130.24" y1="80.56" x2="98.04" y2="80.56"/>
<line stroke="url(#g)" stroke-width="4.14" stroke-linecap="round" stroke-linejoin="round" x1="130.24" y1="60.32" x2="112.76" y2="60.32"/>
<line stroke="url(#g)" stroke-width="4.14" stroke-linecap="round" stroke-linejoin="round" x1="46.52" y1="93.44" x2="61.7" y2="131.16"/>
<line stroke="url(#g)" stroke-width="4.14" stroke-linecap="round" stroke-linejoin="round" x1="61.7" y1="131.16" x2="76.88" y2="93.44"/>
<line stroke="url(#g)" stroke-width="4.14" stroke-linecap="round" stroke-linejoin="round" x1="52.96" y1="114.6" x2="70.44" y2="114.6"/>
<line stroke="url(#g)" stroke-width="4.14" stroke-linecap="round" stroke-linejoin="round" x1="98.04" y1="131.16" x2="98.04" y2="93.44"/>
<line stroke="url(#g)" stroke-width="4.14" stroke-linecap="round" stroke-linejoin="round" x1="98.04" y1="93.44" x2="130.24" y2="131.16"/>
<line stroke="url(#g)" stroke-width="4.14" stroke-linecap="round" stroke-linejoin="round" x1="130.24" y1="131.16" x2="130.24" y2="93.44"/>
<circle fill="#fff" stroke="url(#g)" stroke-width="3.22" cx="46.52" cy="93.44" r="4.37"/>
<circle fill="#fff" stroke="url(#g)" stroke-width="3.22" cx="50.2" cy="43.76" r="4.37"/>
<circle fill="#fff" stroke="url(#g)" stroke-width="3.22" cx="50.2" cy="80.56" r="4.37"/>
<circle fill="#fff" stroke="url(#g)" stroke-width="3.22" cx="52.96" cy="114.6" r="4.37"/>
<circle fill="#fff" stroke="url(#g)" stroke-width="3.22" cx="61.7" cy="131.16" r="4.37"/>
<circle fill="#fff" stroke="url(#g)" stroke-width="3.22" cx="70.44" cy="114.6" r="4.37"/>
<circle fill="#fff" stroke="url(#g)" stroke-width="3.22" cx="75.96" cy="80.56" r="4.37"/>
<circle fill="#fff" stroke="url(#g)" stroke-width="3.22" cx="76.88" cy="93.44" r="4.37"/>
<circle fill="#fff" stroke="url(#g)" stroke-width="3.22" cx="98.04" cy="43.76" r="4.37"/>
<circle fill="#fff" stroke="url(#g)" stroke-width="3.22" cx="98.04" cy="80.56" r="4.37"/>
<circle fill="#fff" stroke="url(#g)" stroke-width="3.22" cx="98.04" cy="93.44" r="4.37"/>
<circle fill="#fff" stroke="url(#g)" stroke-width="3.22" cx="98.04" cy="131.16" r="4.37"/>
<circle fill="#fff" stroke="url(#g)" stroke-width="3.22" cx="112.76" cy="60.32" r="4.37"/>
<circle fill="#fff" stroke="url(#g)" stroke-width="3.22" cx="130.24" cy="43.76" r="4.37"/>
<circle fill="#fff" stroke="url(#g)" stroke-width="3.22" cx="130.24" cy="60.32" r="4.37"/>
<circle fill="#fff" stroke="url(#g)" stroke-width="3.22" cx="130.24" cy="80.56" r="4.37"/>
<circle fill="#fff" stroke="url(#g)" stroke-width="3.22" cx="130.24" cy="93.44" r="4.37"/>
<circle fill="#fff" stroke="url(#g)" stroke-width="3.22" cx="130.24" cy="131.16" r="4.37"/>
</g>
<text x="196" y="100" font-family="'Segoe UI','Helvetica Neue',Arial,sans-serif" font-weight="700" font-size="52" fill="#1e293b">TNLean</text>
<text x="198" y="128" font-family="'Segoe UI','Helvetica Neue',Arial,sans-serif" font-weight="500" font-size="14.5" letter-spacing="2.1" fill="#64748b">TENSOR NETWORKS · LEAN 4</text>
</svg>